<mxfile host="app.diagrams.net" modified="2022-04-02T13:25:03.223Z" agent="5.0 (Windows)" etag="bWbRPVdXx9rjBUawVT01" version="17.4.0" type="github">
  <diagram id="_GJ-5IWOSrM0xrX7wr9T" name="Page-1">
    <mxGraphModel dx="1422" dy="709" grid="1" gridSize="10" guides="1" tooltips="1" connect="1" arrows="1" fold="1" page="1" pageScale="1" pageWidth="827" pageHeight="1169" math="0" shadow="0">
      <root>
        <mxCell id="0" />
        <mxCell id="1" parent="0" />
        <mxCell id="8AdTmRd0oCpm99fwJIZ0-1" value="Database" style="shape=cylinder3;whiteSpace=wrap;html=1;boundedLbl=1;backgroundOutline=1;size=15;" vertex="1" parent="1">
          <mxGeometry x="240" y="280" width="60" height="80" as="geometry" />
        </mxCell>
        <mxCell id="8AdTmRd0oCpm99fwJIZ0-2" value="Azure Function/Firebase" style="rounded=0;whiteSpace=wrap;html=1;" vertex="1" parent="1">
          <mxGeometry x="506" y="290" width="120" height="60" as="geometry" />
        </mxCell>
        <mxCell id="8AdTmRd0oCpm99fwJIZ0-3" value="Hawkinge" style="rounded=0;whiteSpace=wrap;html=1;" vertex="1" parent="1">
          <mxGeometry x="294" y="540" width="66" height="50" as="geometry" />
        </mxCell>
        <mxCell id="8AdTmRd0oCpm99fwJIZ0-4" value="Harpwood" style="rounded=0;whiteSpace=wrap;html=1;" vertex="1" parent="1">
          <mxGeometry x="380" y="540" width="66" height="50" as="geometry" />
        </mxCell>
        <mxCell id="8AdTmRd0oCpm99fwJIZ0-5" value="Cornford" style="rounded=0;whiteSpace=wrap;html=1;" vertex="1" parent="1">
          <mxGeometry x="470" y="540" width="66" height="50" as="geometry" />
        </mxCell>
        <mxCell id="8AdTmRd0oCpm99fwJIZ0-6" value="Hawkhurst" style="rounded=0;whiteSpace=wrap;html=1;" vertex="1" parent="1">
          <mxGeometry x="560" y="540" width="66" height="50" as="geometry" />
        </mxCell>
        <mxCell id="8AdTmRd0oCpm99fwJIZ0-7" value="Hazeldene" style="rounded=0;whiteSpace=wrap;html=1;" vertex="1" parent="1">
          <mxGeometry x="650" y="540" width="66" height="50" as="geometry" />
        </mxCell>
        <mxCell id="8AdTmRd0oCpm99fwJIZ0-8" value="Rodwell" style="rounded=0;whiteSpace=wrap;html=1;" vertex="1" parent="1">
          <mxGeometry x="740" y="540" width="66" height="50" as="geometry" />
        </mxCell>
        <mxCell id="8AdTmRd0oCpm99fwJIZ0-9" value="" style="endArrow=classic;html=1;rounded=0;entryX=0.5;entryY=1;entryDx=0;entryDy=0;exitX=0.5;exitY=0;exitDx=0;exitDy=0;" edge="1" parent="1" source="8AdTmRd0oCpm99fwJIZ0-3" target="8AdTmRd0oCpm99fwJIZ0-2">
          <mxGeometry width="50" height="50" relative="1" as="geometry">
            <mxPoint x="330" y="530" as="sourcePoint" />
            <mxPoint x="440" y="340" as="targetPoint" />
          </mxGeometry>
        </mxCell>
        <mxCell id="8AdTmRd0oCpm99fwJIZ0-11" value="" style="endArrow=classic;html=1;rounded=0;exitX=0.5;exitY=0;exitDx=0;exitDy=0;" edge="1" parent="1" source="8AdTmRd0oCpm99fwJIZ0-4">
          <mxGeometry width="50" height="50" relative="1" as="geometry">
            <mxPoint x="390" y="390" as="sourcePoint" />
            <mxPoint x="560" y="350" as="targetPoint" />
          </mxGeometry>
        </mxCell>
        <mxCell id="8AdTmRd0oCpm99fwJIZ0-12" value="" style="endArrow=classic;html=1;rounded=0;exitX=0.5;exitY=0;exitDx=0;exitDy=0;" edge="1" parent="1" source="8AdTmRd0oCpm99fwJIZ0-5">
          <mxGeometry width="50" height="50" relative="1" as="geometry">
            <mxPoint x="510" y="400" as="sourcePoint" />
            <mxPoint x="560" y="350" as="targetPoint" />
          </mxGeometry>
        </mxCell>
        <mxCell id="8AdTmRd0oCpm99fwJIZ0-13" value="" style="endArrow=classic;html=1;rounded=0;exitX=0.5;exitY=0;exitDx=0;exitDy=0;" edge="1" parent="1" source="8AdTmRd0oCpm99fwJIZ0-6">
          <mxGeometry width="50" height="50" relative="1" as="geometry">
            <mxPoint x="510" y="400" as="sourcePoint" />
            <mxPoint x="560" y="350" as="targetPoint" />
          </mxGeometry>
        </mxCell>
        <mxCell id="8AdTmRd0oCpm99fwJIZ0-14" value="" style="endArrow=classic;html=1;rounded=0;exitX=0.5;exitY=0;exitDx=0;exitDy=0;" edge="1" parent="1" source="8AdTmRd0oCpm99fwJIZ0-7">
          <mxGeometry width="50" height="50" relative="1" as="geometry">
            <mxPoint x="510" y="400" as="sourcePoint" />
            <mxPoint x="560" y="350" as="targetPoint" />
          </mxGeometry>
        </mxCell>
        <mxCell id="8AdTmRd0oCpm99fwJIZ0-15" value="" style="endArrow=classic;html=1;rounded=0;exitX=0.5;exitY=0;exitDx=0;exitDy=0;" edge="1" parent="1" source="8AdTmRd0oCpm99fwJIZ0-8">
          <mxGeometry width="50" height="50" relative="1" as="geometry">
            <mxPoint x="510" y="400" as="sourcePoint" />
            <mxPoint x="560" y="350" as="targetPoint" />
          </mxGeometry>
        </mxCell>
        <mxCell id="8AdTmRd0oCpm99fwJIZ0-16" value="PCS Nightly Importer" style="rounded=0;whiteSpace=wrap;html=1;" vertex="1" parent="1">
          <mxGeometry x="220" y="80" width="120" height="60" as="geometry" />
        </mxCell>
        <mxCell id="8AdTmRd0oCpm99fwJIZ0-17" value="Dashboard" style="rounded=0;whiteSpace=wrap;html=1;" vertex="1" parent="1">
          <mxGeometry x="40" y="80" width="120" height="60" as="geometry" />
        </mxCell>
        <mxCell id="8AdTmRd0oCpm99fwJIZ0-18" value="GUID Links Application" style="rounded=0;whiteSpace=wrap;html=1;" vertex="1" parent="1">
          <mxGeometry x="400" y="80" width="120" height="60" as="geometry" />
        </mxCell>
        <mxCell id="8AdTmRd0oCpm99fwJIZ0-19" value="CQCNightly Importer" style="rounded=0;whiteSpace=wrap;html=1;" vertex="1" parent="1">
          <mxGeometry x="580" y="80" width="120" height="60" as="geometry" />
        </mxCell>
        <mxCell id="8AdTmRd0oCpm99fwJIZ0-20" value="" style="endArrow=classic;startArrow=classic;html=1;rounded=0;entryX=0;entryY=0.5;entryDx=0;entryDy=0;" edge="1" parent="1" target="8AdTmRd0oCpm99fwJIZ0-2">
          <mxGeometry width="50" height="50" relative="1" as="geometry">
            <mxPoint x="300" y="320" as="sourcePoint" />
            <mxPoint x="350" y="270" as="targetPoint" />
          </mxGeometry>
        </mxCell>
        <mxCell id="8AdTmRd0oCpm99fwJIZ0-21" value="" style="endArrow=classic;html=1;rounded=0;exitX=0.283;exitY=0.013;exitDx=0;exitDy=0;exitPerimeter=0;" edge="1" parent="1" source="8AdTmRd0oCpm99fwJIZ0-1">
          <mxGeometry width="50" height="50" relative="1" as="geometry">
            <mxPoint x="50" y="190" as="sourcePoint" />
            <mxPoint x="100" y="140" as="targetPoint" />
          </mxGeometry>
        </mxCell>
        <mxCell id="8AdTmRd0oCpm99fwJIZ0-22" value="" style="endArrow=classic;html=1;rounded=0;exitX=0.5;exitY=1;exitDx=0;exitDy=0;" edge="1" parent="1" source="8AdTmRd0oCpm99fwJIZ0-16">
          <mxGeometry width="50" height="50" relative="1" as="geometry">
            <mxPoint x="220" y="330" as="sourcePoint" />
            <mxPoint x="270" y="280" as="targetPoint" />
          </mxGeometry>
        </mxCell>
        <mxCell id="8AdTmRd0oCpm99fwJIZ0-23" value="" style="endArrow=classic;startArrow=classic;html=1;rounded=0;exitX=0.855;exitY=0;exitDx=0;exitDy=4.35;exitPerimeter=0;" edge="1" parent="1" source="8AdTmRd0oCpm99fwJIZ0-1">
          <mxGeometry width="50" height="50" relative="1" as="geometry">
            <mxPoint x="410" y="190" as="sourcePoint" />
            <mxPoint x="460" y="140" as="targetPoint" />
          </mxGeometry>
        </mxCell>
        <mxCell id="8AdTmRd0oCpm99fwJIZ0-24" value="" style="endArrow=classic;html=1;rounded=0;entryX=1;entryY=0;entryDx=0;entryDy=15;entryPerimeter=0;exitX=0.5;exitY=1;exitDx=0;exitDy=0;" edge="1" parent="1" source="8AdTmRd0oCpm99fwJIZ0-19" target="8AdTmRd0oCpm99fwJIZ0-1">
          <mxGeometry width="50" height="50" relative="1" as="geometry">
            <mxPoint x="390" y="390" as="sourcePoint" />
            <mxPoint x="440" y="340" as="targetPoint" />
          </mxGeometry>
        </mxCell>
        <mxCell id="8AdTmRd0oCpm99fwJIZ0-25" value="Woodchurch" style="rounded=0;whiteSpace=wrap;html=1;" vertex="1" parent="1">
          <mxGeometry x="190" y="540" width="76" height="50" as="geometry" />
        </mxCell>
        <mxCell id="8AdTmRd0oCpm99fwJIZ0-26" value="" style="endArrow=classic;html=1;rounded=0;exitX=0.5;exitY=0;exitDx=0;exitDy=0;" edge="1" parent="1" source="8AdTmRd0oCpm99fwJIZ0-25">
          <mxGeometry width="50" height="50" relative="1" as="geometry">
            <mxPoint x="390" y="390" as="sourcePoint" />
            <mxPoint x="560" y="350" as="targetPoint" />
          </mxGeometry>
        </mxCell>
        <mxCell id="8AdTmRd0oCpm99fwJIZ0-27" value="" style="verticalLabelPosition=bottom;verticalAlign=top;html=1;shape=mxgraph.basic.tick" vertex="1" parent="1">
          <mxGeometry x="640" y="300" width="30" height="30" as="geometry" />
        </mxCell>
        <mxCell id="8AdTmRd0oCpm99fwJIZ0-28" value="" style="verticalLabelPosition=bottom;verticalAlign=top;html=1;shape=mxgraph.basic.tick" vertex="1" parent="1">
          <mxGeometry x="670" y="600" width="30" height="30" as="geometry" />
        </mxCell>
        <mxCell id="8AdTmRd0oCpm99fwJIZ0-29" value="" style="verticalLabelPosition=bottom;verticalAlign=top;html=1;shape=mxgraph.basic.tick" vertex="1" parent="1">
          <mxGeometry x="398" y="600" width="30" height="30" as="geometry" />
        </mxCell>
        <mxCell id="8AdTmRd0oCpm99fwJIZ0-30" value="" style="verticalLabelPosition=bottom;verticalAlign=top;html=1;shape=mxgraph.basic.tick" vertex="1" parent="1">
          <mxGeometry x="200" y="300" width="30" height="30" as="geometry" />
        </mxCell>
        <mxCell id="8AdTmRd0oCpm99fwJIZ0-31" value="" style="verticalLabelPosition=bottom;verticalAlign=top;html=1;shape=mxgraph.basic.tick" vertex="1" parent="1">
          <mxGeometry x="340" y="90" width="30" height="30" as="geometry" />
        </mxCell>
        <mxCell id="8AdTmRd0oCpm99fwJIZ0-32" value="" style="verticalLabelPosition=bottom;verticalAlign=top;html=1;shape=mxgraph.basic.tick" vertex="1" parent="1">
          <mxGeometry x="758" y="600" width="30" height="30" as="geometry" />
        </mxCell>
        <mxCell id="8AdTmRd0oCpm99fwJIZ0-33" value="" style="verticalLabelPosition=bottom;verticalAlign=top;html=1;shape=mxgraph.basic.tick" vertex="1" parent="1">
          <mxGeometry x="213" y="600" width="30" height="30" as="geometry" />
        </mxCell>
      </root>
    </mxGraphModel>
  </diagram>
</mxfile>
